<svg width="96" height="24" viewBox="0 0 96 24" fill="none" xmlns="http://www.w3.org/2000/svg">
<path d="M0 23.6418V7.81547H4.97416V23.6418H0ZM4.97416 14.9471L2.89347 13.3189C3.30527 11.4735 3.99884 10.0407 4.97416 9.02035C5.94949 8 7.30411 7.48982 9.03802 7.48982C9.79661 7.48982 10.4577 7.60923 11.0212 7.84803C11.6064 8.06513 12.1157 8.41248 12.5492 8.89009L9.5907 12.635C9.37397 12.3962 9.10304 12.2117 8.77793 12.0814C8.45282 11.9512 8.08437 11.886 7.67256 11.886C6.84895 11.886 6.1879 12.1465 5.6894 12.6676C5.21257 13.1669 4.97416 13.9267 4.97416 14.9471Z" fill="#08F7AF"/>
<path d="M18.729 23.9674C17.2769 23.9674 15.9765 23.6092 14.8277 22.8928C13.7007 22.1764 12.8012 21.1995 12.1293 19.962C11.4791 18.7246 11.154 17.3134 11.154 15.7286C11.154 14.1438 11.4791 12.7327 12.1293 11.4952C12.8012 10.2578 13.7007 9.28087 14.8277 8.56445C15.9765 7.84803 17.2769 7.48982 18.729 7.48982C19.7911 7.48982 20.7447 7.69606 21.59 8.10855C22.457 8.52103 23.1614 9.09634 23.7032 9.83446C24.2451 10.5509 24.5485 11.3758 24.6135 12.3094V19.1479C24.5485 20.0814 24.2451 20.9172 23.7032 21.6554C23.183 22.3718 22.4895 22.9362 21.6225 23.3487C20.7556 23.7612 19.7911 23.9674 18.729 23.9674ZM19.7369 19.4735C20.7989 19.4735 21.655 19.1262 22.3052 18.4315C22.9555 17.7151 23.2806 16.8141 23.2806 15.7286C23.2806 14.9905 23.1289 14.3392 22.8254 13.7748C22.5437 13.2103 22.1319 12.7761 21.59 12.4722C21.0698 12.1465 20.463 11.9837 19.7694 11.9837C19.0758 11.9837 18.4581 12.1465 17.9163 12.4722C17.3961 12.7761 16.9735 13.2103 16.6484 13.7748C16.3449 14.3392 16.1932 14.9905 16.1932 15.7286C16.1932 16.445 16.3449 17.0855 16.6484 17.6499C16.9518 18.2144 17.3744 18.6594 17.9163 18.9851C18.4581 19.3107 19.065 19.4735 19.7369 19.4735ZM23.0855 23.6418V19.3758L23.8333 15.5332L23.0855 11.6906V7.81547H27.9621V23.6418H23.0855Z" fill="#08F7AF"/>
<path d="M39.267 23.9674C38.205 23.9674 37.2297 23.7503 36.341 23.3161C35.4524 22.8602 34.7263 22.2632 34.1628 21.5251C33.5993 20.7653 33.2742 19.9186 33.1875 18.9851V12.3094C33.2742 11.3758 33.5993 10.5509 34.1628 9.83446C34.7263 9.09634 35.4524 8.52103 36.341 8.10855C37.2297 7.69606 38.205 7.48982 39.267 7.48982C40.7625 7.48982 42.0846 7.84803 43.2333 8.56445C44.4037 9.28087 45.314 10.2578 45.9643 11.4952C46.6362 12.7327 46.9721 14.1438 46.9721 15.7286C46.9721 17.3134 46.6362 18.7246 45.9643 19.962C45.314 21.1995 44.4037 22.1764 43.2333 22.8928C42.0846 23.6092 40.7625 23.9674 39.267 23.9674ZM38.3892 19.4735C39.0828 19.4735 39.6897 19.3107 40.2098 18.9851C40.7517 18.6594 41.1743 18.2144 41.4778 17.6499C41.7812 17.0855 41.9329 16.445 41.9329 15.7286C41.9329 14.9905 41.7812 14.3392 41.4778 13.7748C41.1743 13.2103 40.7517 12.7761 40.2098 12.4722C39.6897 12.1465 39.0828 11.9837 38.3892 11.9837C37.6957 11.9837 37.078 12.1465 36.5361 12.4722C35.9943 12.7761 35.5716 13.2103 35.2682 13.7748C34.9864 14.3392 34.8455 14.9905 34.8455 15.7286C34.8455 16.4668 34.9973 17.118 35.3007 17.6825C35.6041 18.2469 36.0159 18.692 36.5361 19.0176C37.078 19.3216 37.6957 19.4735 38.3892 19.4735ZM30.164 23.6418V0H35.1381V11.6906L34.3254 15.5332L35.0731 19.3758V23.6418H30.164Z" fill="#08F7AF"/>
<path d="M57.3017 23.9674C56.2396 23.9674 55.2643 23.7503 54.3757 23.3161C53.4871 22.8602 52.761 22.2632 52.1975 21.5251C51.6339 20.7653 51.3088 19.9186 51.2221 18.9851V12.3094C51.3088 11.3758 51.6339 10.5509 52.1975 9.83446C52.761 9.09634 53.4871 8.52103 54.3757 8.10855C55.2643 7.69606 56.2396 7.48982 57.3017 7.48982C58.7972 7.48982 60.1193 7.84803 61.268 8.56445C62.4384 9.28087 63.3487 10.2578 63.9989 11.4952C64.6708 12.7327 65.0067 14.1438 65.0067 15.7286C65.0067 17.3134 64.6708 18.7246 63.9989 19.962C63.3487 21.1995 62.4384 22.1764 61.268 22.8928C60.1193 23.6092 58.7972 23.9674 57.3017 23.9674ZM56.4239 19.4735C57.1174 19.4735 57.7243 19.3107 58.2445 18.9851C58.7863 18.6594 59.209 18.2144 59.5124 17.6499C59.8158 17.0855 59.9676 16.445 59.9676 15.7286C59.9676 14.9905 59.8158 14.3392 59.5124 13.7748C59.209 13.2103 58.7863 12.7761 58.2445 12.4722C57.7243 12.1465 57.1174 11.9837 56.4239 11.9837C55.7303 11.9837 55.1126 12.1465 54.5707 12.4722C54.0289 12.7761 53.6063 13.2103 53.3028 13.7748C53.0211 14.3392 52.8802 14.9905 52.8802 15.7286C52.8802 16.4668 53.0319 17.118 53.3353 17.6825C53.6388 18.2469 54.0506 18.692 54.5707 19.0176C55.1126 19.3216 55.7303 19.4735 56.4239 19.4735ZM48.1986 23.6418V0H53.1728V11.6906L52.36 15.5332L53.1078 19.3758V23.6418H48.1986Z" fill="#08F7AF"/>
<path d="M66.2333 23.6418V0H71.2074V23.6418H66.2333Z" fill="#08F7AF"/>
<path d="M81.2124 24C79.5001 24 77.9721 23.6526 76.6283 22.9579C75.3062 22.2415 74.2659 21.2537 73.5073 19.9946C72.7487 18.7354 72.3694 17.3134 72.3694 15.7286C72.3694 14.1438 72.7379 12.7327 73.4748 11.4952C74.2334 10.2361 75.2521 9.2483 76.5308 8.53189C77.8096 7.81547 79.2509 7.45726 80.8548 7.45726C82.4153 7.45726 83.7916 7.79376 84.9836 8.46676C86.1757 9.13976 87.1077 10.0733 87.7796 11.2673C88.4731 12.4613 88.8199 13.829 88.8199 15.3704C88.8199 15.6526 88.7983 15.9566 88.7549 16.2822C88.7332 16.5862 88.679 16.9444 88.5923 17.3569L74.9703 17.3894V13.9701L86.4791 13.9376L84.3334 15.3704C84.3118 14.4586 84.1709 13.7096 83.9108 13.1235C83.6507 12.5156 83.2606 12.0597 82.7404 11.7558C82.2419 11.4301 81.6242 11.2673 80.8873 11.2673C80.107 11.2673 79.4243 11.4518 78.8391 11.8209C78.2756 12.1682 77.8313 12.6676 77.5061 13.3189C77.2027 13.9701 77.051 14.7626 77.051 15.6961C77.051 16.6296 77.2135 17.4328 77.5387 18.1058C77.8854 18.7571 78.3623 19.2673 78.9691 19.6364C79.5977 19.9837 80.3346 20.1574 81.1799 20.1574C81.9601 20.1574 82.6645 20.0271 83.2931 19.7666C83.9216 19.4844 84.4743 19.0719 84.9511 18.5292L87.682 21.2646C86.9018 22.1764 85.959 22.8602 84.8536 23.3161C83.7482 23.772 82.5345 24 81.2124 24Z" fill="#08F7AF"/>
<path d="M93.0415 24C92.1962 24 91.4918 23.7069 90.9283 23.1208C90.3648 22.5346 90.083 21.829 90.083 21.0041C90.083 20.1357 90.3648 19.4193 90.9283 18.8548C91.4918 18.2687 92.1962 17.9756 93.0415 17.9756C93.9085 17.9756 94.6129 18.2687 95.1547 18.8548C95.7182 19.4193 96 20.1357 96 21.0041C96 21.829 95.7182 22.5346 95.1547 23.1208C94.6129 23.7069 93.9085 24 93.0415 24Z" fill="#08F7AF"/>
</svg>
